<?xml version="1.0" encoding="utf-8"?>
<?xml-stylesheet type="text/xsl" href="rss1.xsl"?>
<rss version="2.0" xmlns:atom="http://www.w3.org/2005/Atom" xmlns:content="http://purl.org/rss/1.0/modules/content/" xmlns:dc="http://purl.org/dc/elements/1.1/" xmlns:media="http://search.yahoo.com/mrss/">
<channel>
 <title>Getty</title>
 <link>http://www.gettyimg.com/</link>
 <atom:link href="http://www.gettyimg.com/" rel="self" type="application/rss+xml" />

 
                <item>
                <title><![CDATA[【Cinema Center】MOVIE - Doctor Strange in the Multiverse of Madness (2022) IMAX WebRip DUAL HEVC - PSA]]></title>
                <link><![CDATA[https://sharemania.us/threads/doctor-strange-in-the-multiverse-of-madness-2022-imax-webrip-dual-hevc-psa.241616/]]></link>
                <description><![CDATA[<article>
<blockquote class="messageText SelectQuoteContainer ugc baseHtml">
<div style="text-align: center"><img src="https://images2.imgbox.com/cd/1f/ECsXkwMy_o.jpg" class="bbCodeImage LbImage" alt="[​IMG]" data-url="https://images2.imgbox.com/cd/1f/ECsXkwMy_o.jpg" style=""> <br>
<span style="font-size: 15px">Credits to PSArips | <a href="https://psa.wf/movie/doctor-strange-in-the-multiverse-of-madness-2022/" target="_blank" class="externalLink" rel="nofollow">psa.wf</a></span><br>
​</div>I just added the audio and subtitles in portuguese from brazilian torrents<br>
<div style="text-align: center">​</div>
<div class="ToggleTriggerAnchor bbCodeSpoilerContainer">
<button type="button" class="button bbCodeSpoilerButton ToggleTrigger Tooltip JsOnly" data-target="> .SpoilerTarget"><span>Spoiler: <span class="SpoilerTitle">Doctor.Strange.in.the.Multiverse.of.Madness.2022.IMAX.2160p.10bit.HDR.DV.WEBRip.DUAL.6CH.x265.HEVC-PSA</span></span></button>
<div class="SpoilerTarget bbCodeSpoilerText">General<br>
Unique ID : 301546140209023411157436014242809726390 (0xE2DBAC92195D276940B479D0BDE345B6)<br>
Complete name : C:\Users\rodri\Videos\Filmes\Doctor.Strange.in.the.Multiverse.of.Madness.2022.IMAX.2160p.10bit.HDR.DV.WEBRip.DUAL.6CH.x265.HEVC-PSA.mkv<br>
Format : Matroska<br>
Format version : Version 4<br>
File size : 5.10 GiB<br>
Duration : 2 h 6 min<br>
Overall bit rate : 5 773 kb/s<br>
Frame rate : 23.976 FPS<br>
Movie name : Doctor.Strange.in.the.Multiverse.of.Madness.2022.IMAX.2160p.10bit.HDR.DV.WEBRip.DUAL.6CH.x265.HEVC-PSA<br>
Encoded date : 2024-03-30 09:01:37 UTC<br>
Writing application : mkvmerge v81.0 ('Milliontown') 64-bit<br>
Writing library : libebml v1.4.4 + libmatroska v1.7.1<br>
Cover : Yes<br>
Attachments : cover.jpg<br>
Video<br>
ID : 1<br>
Format : HEVC<br>
Format/Info : High Efficiency Video Coding<br>
Format profile : Main 10@L5@Main<br>
HDR format : Dolby Vision, Version 1.0, dvhe.08.06, BL+RPU, HDR10 compatible / SMPTE ST 2086, HDR10 compatible<br>
Codec ID : V_MPEGH/ISO/HEVC<br>
Duration : 2 h 6 min<br>
Bit rate : 5 308 kb/s<br>
Width : 3 840 pixels<br>
Height : 2 160 pixels<br>
Display aspect ratio : 16:9<br>
Frame rate mode : Constant<br>
Frame rate : 23.976 (24000/1001) FPS<br>
Color space : YUV<br>
Chroma subsampling : 4:2:0<br>
Bit depth : 10 bits<br>
Bits/(Pixel*Frame) : 0.027<br>
Stream size : 4.69 GiB (92%)<br>
Default : Yes<br>
Forced : No<br>
Color range : Limited<br>
Color primaries : BT.2020<br>
Transfer characteristics : PQ<br>
Matrix coefficients : BT.2020 non-constant<br>
Mastering display color primar : BT.2020<br>
Mastering display luminance : min: 0.0000 cd/m2, max: 1000 cd/m2<br>
Audio #1<br>
ID : 2<br>
Format : AAC LC SBR<br>
Format/Info : Advanced Audio Codec Low Complexity with Spectral Band Replication<br>
Commercial name : HE-AAC<br>
Format settings : Explicit<br>
Codec ID : A_AAC-2<br>
Duration : 2 h 6 min<br>
Bit rate : 203 kb/s<br>
Channel(s) : 6 channels<br>
Channel layout : C L R Ls Rs LFE<br>
Sampling rate : 48.0 kHz<br>
Frame rate : 23.438 FPS (2048 SPF)<br>
Compression mode : Lossy<br>
Delay relative to video : 23 ms<br>
Stream size : 184 MiB (4%)<br>
Language : English<br>
Default : Yes<br>
Forced : No<br>
Audio #2<br>
ID : 3<br>
Format : E-AC-3<br>
Format/Info : Enhanced AC-3<br>
Commercial name : Dolby Digital Plus<br>
Codec ID : A_EAC3<br>
Duration : 2 h 6 min<br>
Bit rate mode : Constant<br>
Bit rate : 256 kb/s<br>
Channel(s) : 6 channels<br>
Channel layout : L R C LFE Ls Rs<br>
Sampling rate : 48.0 kHz<br>
Frame rate : 31.250 FPS (1536 SPF)<br>
Compression mode : Lossy<br>
Stream size : 232 MiB (4%)<br>
Title : PT-BR 5.1<br>
Language : Portuguese<br>
Service kind : Complete Main<br>
Default : Yes<br>
Forced : No<br>
Text #1<br>
ID : 4<br>
Format : UTF-8<br>
Codec ID : S_TEXT/UTF8<br>
Codec ID/Info : UTF-8 Plain Text<br>
Duration : 2 h 4 min<br>
Bit rate : 0 b/s<br>
Frame rate : 0.002 FPS<br>
Count of elements : 14<br>
Stream size : 472 Bytes (0%)<br>
Title : PT-BR FORCED<br>
Language : Portuguese<br>
Default : Yes<br>
Forced : No<br>
Text #2<br>
ID : 5<br>
Format : UTF-8<br>
Codec ID : S_TEXT/UTF8<br>
Codec ID/Info : UTF-8 Plain Text<br>
Duration : 2 h 5 min<br>
Bit rate : 36 b/s<br>
Frame rate : 0.167 FPS<br>
Count of elements : 1253<br>
Stream size : 33.8 KiB (0%)<br>
Title : PT-BR FULL<br>
Language : Portuguese<br>
Default : No<br>
Forced : No<br>
Text #3<br>
ID : 6<br>
Format : UTF-8<br>
Codec ID : S_TEXT/UTF8<br>
Codec ID/Info : UTF-8 Plain Text<br>
Duration : 2 h 5 min<br>
Bit rate : 38 b/s<br>
Frame rate : 0.158 FPS<br>
Count of elements : 1187<br>
Stream size : 35.7 KiB (0%)<br>
Title : PT-BR FULL 2<br>
Language : Portuguese<br>
Default : No<br>
Forced : No<br>
Text #4<br>
ID : 7<br>
Format : UTF-8<br>
Codec ID : S_TEXT/UTF8<br>
Codec ID/Info : UTF-8 Plain Text<br>
Duration : 2 h 6 min<br>
Bit rate : 47 b/s<br>
Frame rate : 0.214 FPS<br>
Count of elements : 1621<br>
Stream size : 44.3 KiB (0%)<br>
Title : PT-BR SDH<br>
Language : Portuguese<br>
Default : No<br>
Forced : No<br>
Text #5<br>
ID : 8<br>
Format : UTF-8<br>
Codec ID : S_TEXT/UTF8<br>
Codec ID/Info : UTF-8 Plain Text<br>
Duration : 2 h 5 min<br>
Bit rate : 37 b/s<br>
Frame rate : 0.176 FPS<br>
Count of elements : 1322<br>
Stream size : 34.2 KiB (0%)<br>
Language : English<br>
Default : Yes<br>
Forced : No<br>
Text #6<br>
ID : 9<br>
Format : UTF-8<br>
Codec ID : S_TEXT/UTF8<br>
Codec ID/Info : UTF-8 Plain Text<br>
Duration : 25 min 8 s<br>
Bit rate : 1 b/s<br>
Frame rate : 0.007 FPS<br>
Count of elements : 10<br>
Stream size : 265 Bytes (0%)<br>
Title : Forced<br>
Language : English<br>
Default : No<br>
Forced : No<br>
Text #7<br>
ID : 10<br>
Format : UTF-8<br>
Codec ID : S_TEXT/UTF8<br>
Codec ID/Info : UTF-8 Plain Text<br>
Duration : 2 h 5 min<br>
Bit rate : 50 b/s<br>
Frame rate : 0.253 FPS<br>
Count of elements : 1906<br>
Stream size : 46.1 KiB (0%)<br>
Title : SDH<br>
Language : English<br>
Default : No<br>
Forced : No<br>
Text #8<br>
ID : 11<br>
Format : UTF-8<br>
Codec ID : S_TEXT/UTF8<br>
Codec ID/Info : UTF-8 Plain Text<br>
Duration : 2 h 5 min<br>
Bit rate : 35 b/s<br>
Frame rate : 0.167 FPS<br>
Count of elements : 1256<br>
Stream size : 32.1 KiB (0%)<br>
Language : Czech<br>
Default : No<br>
Forced : No<br>
Text #9<br>
ID : 12<br>
Format : UTF-8<br>
Codec ID : S_TEXT/UTF8<br>
Codec ID/Info : UTF-8 Plain Text<br>
Duration : 2 h 5 min<br>
Bit rate : 32 b/s<br>
Frame rate : 0.109 FPS<br>
Count of elements : 815<br>
Stream size : 29.5 KiB (0%)<br>
Language : Danish<br>
Default : No<br>
Forced : No<br>
Text #10<br>
ID : 13<br>
Format : UTF-8<br>
Codec ID : S_TEXT/UTF8<br>
Codec ID/Info : UTF-8 Plain Text<br>
Duration : 2 h 5 min<br>
Bit rate : 33 b/s<br>
Frame rate : 0.153 FPS<br>
Count of elements : 1150<br>
Stream size : 31.2 KiB (0%)<br>
Language : German<br>
Default : No<br>
Forced : No<br>
Text #11<br>
ID : 14<br>
Format : UTF-8<br>
Codec ID : S_TEXT/UTF8<br>
Codec ID/Info : UTF-8 Plain Text<br>
Duration : 2 h 5 min<br>
Bit rate : 44 b/s<br>
Frame rate : 0.172 FPS<br>
Count of elements : 1297<br>
Stream size : 41.3 KiB (0%)<br>
Title : SDH<br>
Language : German<br>
Default : No<br>
Forced : No<br>
Text #12<br>
ID : 15<br>
Format : UTF-8<br>
Codec ID : S_TEXT/UTF8<br>
Codec ID/Info : UTF-8 Plain Text<br>
Duration : 2 h 5 min<br>
Bit rate : 62 b/s<br>
Frame rate : 0.166 FPS<br>
Count of elements : 1244<br>
Stream size : 57.1 KiB (0%)<br>
Language : Greek<br>
Default : No<br>
Forced : No<br>
Text #13<br>
ID : 16<br>
Format : UTF-8<br>
Codec ID : S_TEXT/UTF8<br>
Codec ID/Info : UTF-8 Plain Text<br>
Duration : 2 h 5 min<br>
Bit rate : 35 b/s<br>
Frame rate : 0.166 FPS<br>
Count of elements : 1248<br>
Stream size : 32.1 KiB (0%)<br>
Language : Spanish<br>
Default : No<br>
Forced : No<br>
Text #14<br>
ID : 17<br>
Format : UTF-8<br>
Codec ID : S_TEXT/UTF8<br>
Codec ID/Info : UTF-8 Plain Text<br>
Duration : 2 h 5 min<br>
Bit rate : 37 b/s<br>
Frame rate : 0.167 FPS<br>
Count of elements : 1252<br>
Stream size : 34.5 KiB (0%)<br>
Title : Latin American<br>
Language : Spanish<br>
Default : No<br>
Forced : No<br>
Text #15<br>
ID : 18<br>
Format : UTF-8<br>
Codec ID : S_TEXT/UTF8<br>
Codec ID/Info : UTF-8 Plain Text<br>
Duration : 2 h 6 min<br>
Bit rate : 38 b/s<br>
Frame rate : 0.158 FPS<br>
Count of elements : 1195<br>
Stream size : 35.2 KiB (0%)<br>
Title : Latin American SDH<br>
Language : Spanish<br>
Default : No<br>
Forced : No<br>
Text #16<br>
ID : 19<br>
Format : UTF-8<br>
Codec ID : S_TEXT/UTF8<br>
Codec ID/Info : UTF-8 Plain Text<br>
Duration : 2 h 5 min<br>
Bit rate : 37 b/s<br>
Frame rate : 0.166 FPS<br>
Count of elements : 1246<br>
Stream size : 34.1 KiB (0%)<br>
Language : Finnish<br>
Default : No<br>
Forced : No<br>
Text #17<br>
ID : 20<br>
Format : UTF-8<br>
Codec ID : S_TEXT/UTF8<br>
Codec ID/Info : UTF-8 Plain Text<br>
Duration : 2 h 5 min<br>
Bit rate : 33 b/s<br>
Frame rate : 0.155 FPS<br>
Count of elements : 1165<br>
Stream size : 30.7 KiB (0%)<br>
Language : French<br>
Default : No<br>
Forced : No<br>
Text #18<br>
ID : 21<br>
Format : UTF-8<br>
Codec ID : S_TEXT/UTF8<br>
Codec ID/Info : UTF-8 Plain Text<br>
Duration : 2 h 6 min<br>
Bit rate : 42 b/s<br>
Frame rate : 0.193 FPS<br>
Count of elements : 1460<br>
Stream size : 39.6 KiB (0%)<br>
Title : SDH<br>
Language : French<br>
Default : No<br>
Forced : No<br>
Text #19<br>
ID : 22<br>
Format : UTF-8<br>
Codec ID : S_TEXT/UTF8<br>
Codec ID/Info : UTF-8 Plain Text<br>
Duration : 2 h 5 min<br>
Bit rate : 40 b/s<br>
Frame rate : 0.171 FPS<br>
Count of elements : 1282<br>
Stream size : 37.0 KiB (0%)<br>
Title : Canadian<br>
Language : French<br>
Default : No<br>
Forced : No<br>
Text #20<br>
ID : 23<br>
Format : UTF-8<br>
Codec ID : S_TEXT/UTF8<br>
Codec ID/Info : UTF-8 Plain Text<br>
Duration : 2 h 5 min<br>
Bit rate : 57 b/s<br>
Frame rate : 0.260 FPS<br>
Count of elements : 1957<br>
Stream size : 53.0 KiB (0%)<br>
Title : Canadian SDH<br>
Language : French<br>
Default : No<br>
Forced : No<br>
Text #21<br>
ID : 24<br>
Format : UTF-8<br>
Codec ID : S_TEXT/UTF8<br>
Codec ID/Info : UTF-8 Plain Text<br>
Duration : 2 h 5 min<br>
Bit rate : 33 b/s<br>
Frame rate : 0.167 FPS<br>
Count of elements : 1256<br>
Stream size : 30.6 KiB (0%)<br>
Language : Hungarian<br>
Default : No<br>
Forced : No<br>
Text #22<br>
ID : 25<br>
Format : UTF-8<br>
Codec ID : S_TEXT/UTF8<br>
Codec ID/Info : UTF-8 Plain Text<br>
Duration : 2 h 5 min<br>
Bit rate : 36 b/s<br>
Frame rate : 0.167 FPS<br>
Count of elements : 1258<br>
Stream size : 33.9 KiB (0%)<br>
Language : Icelandic<br>
Default : No<br>
Forced : No<br>
Text #23<br>
ID : 26<br>
Format : UTF-8<br>
Codec ID : S_TEXT/UTF8<br>
Codec ID/Info : UTF-8 Plain Text<br>
Duration : 2 h 5 min<br>
Bit rate : 38 b/s<br>
Frame rate : 0.168 FPS<br>
Count of elements : 1260<br>
Stream size : 35.3 KiB (0%)<br>
Language : Italian<br>
Default : No<br>
Forced : No<br>
Text #24<br>
ID : 27<br>
Format : UTF-8<br>
Codec ID : S_TEXT/UTF8<br>
Codec ID/Info : UTF-8 Plain Text<br>
Duration : 2 h 5 min<br>
Bit rate : 31 b/s<br>
Frame rate : 0.157 FPS<br>
Count of elements : 1177<br>
Stream size : 29.1 KiB (0%)<br>
Language : Japanese<br>
Default : No<br>
Forced : No<br>
Text #25<br>
ID : 28<br>
Format : UTF-8<br>
Codec ID : S_TEXT/UTF8<br>
Codec ID/Info : UTF-8 Plain Text<br>
Duration : 2 h 5 min<br>
Bit rate : 38 b/s<br>
Frame rate : 0.167 FPS<br>
Count of elements : 1255<br>
Stream size : 35.0 KiB (0%)<br>
Language : Korean<br>
Default : No<br>
Forced : No<br>
Text #26<br>
ID : 29<br>
Format : UTF-8<br>
Codec ID : S_TEXT/UTF8<br>
Codec ID/Info : UTF-8 Plain Text<br>
Duration : 2 h 5 min<br>
Bit rate : 35 b/s<br>
Frame rate : 0.135 FPS<br>
Count of elements : 1011<br>
Stream size : 32.8 KiB (0%)<br>
Language : Dutch<br>
Default : No<br>
Forced : No<br>
Text #27<br>
ID : 30<br>
Format : UTF-8<br>
Codec ID : S_TEXT/UTF8<br>
Codec ID/Info : UTF-8 Plain Text<br>
Duration : 2 h 5 min<br>
Bit rate : 33 b/s<br>
Frame rate : 0.168 FPS<br>
Count of elements : 1261<br>
Stream size : 31.1 KiB (0%)<br>
Language : Norwegian<br>
Default : No<br>
Forced : No<br>
Text #28<br>
ID : 31<br>
Format : UTF-8<br>
Codec ID : S_TEXT/UTF8<br>
Codec ID/Info : UTF-8 Plain Text<br>
Duration : 2 h 5 min<br>
Bit rate : 30 b/s<br>
Frame rate : 0.166 FPS<br>
Count of elements : 1249<br>
Stream size : 27.8 KiB (0%)<br>
Language : Polish<br>
Default : No<br>
Forced : No<br>
Text #29<br>
ID : 32<br>
Format : UTF-8<br>
Codec ID : S_TEXT/UTF8<br>
Codec ID/Info : UTF-8 Plain Text<br>
Duration : 2 h 6 min<br>
Bit rate : 36 b/s<br>
Frame rate : 0.165 FPS<br>
Count of elements : 1246<br>
Stream size : 33.8 KiB (0%)<br>
Language : Portuguese<br>
Default : No<br>
Forced : No<br>
Text #30<br>
ID : 33<br>
Format : UTF-8<br>
Codec ID : S_TEXT/UTF8<br>
Codec ID/Info : UTF-8 Plain Text<br>
Duration : 2 h 5 min<br>
Bit rate : 36 b/s<br>
Frame rate : 0.167 FPS<br>
Count of elements : 1253<br>
Stream size : 33.5 KiB (0%)<br>
Title : Brazilian<br>
Language : Portuguese<br>
Default : No<br>
Forced : No<br>
Text #31<br>
ID : 34<br>
Format : UTF-8<br>
Codec ID : S_TEXT/UTF8<br>
Codec ID/Info : UTF-8 Plain Text<br>
Duration : 2 h 6 min<br>
Bit rate : 47 b/s<br>
Frame rate : 0.214 FPS<br>
Count of elements : 1621<br>
Stream size : 43.8 KiB (0%)<br>
Title : Brazilian SDH<br>
Language : Portuguese<br>
Default : No<br>
Forced : No<br>
Text #32<br>
ID : 35<br>
Format : UTF-8<br>
Codec ID : S_TEXT/UTF8<br>
Codec ID/Info : UTF-8 Plain Text<br>
Duration : 2 h 5 min<br>
Bit rate : 38 b/s<br>
Frame rate : 0.159 FPS<br>
Count of elements : 1197<br>
Stream size : 35.0 KiB (0%)<br>
Language : Romanian<br>
Default : No<br>
Forced : No<br>
Text #33<br>
ID : 36<br>
Format : UTF-8<br>
Codec ID : S_TEXT/UTF8<br>
Codec ID/Info : UTF-8 Plain Text<br>
Duration : 2 h 5 min<br>
Bit rate : 32 b/s<br>
Frame rate : 0.167 FPS<br>
Count of elements : 1257<br>
Stream size : 29.4 KiB (0%)<br>
Language : Slovak<br>
Default : No<br>
Forced : No<br>
Text #34<br>
ID : 37<br>
Format : UTF-8<br>
Codec ID : S_TEXT/UTF8<br>
Codec ID/Info : UTF-8 Plain Text<br>
Duration : 2 h 5 min<br>
Bit rate : 35 b/s<br>
Frame rate : 0.126 FPS<br>
Count of elements : 949<br>
Stream size : 32.3 KiB (0%)<br>
Language : Swedish<br>
Default : No<br>
Forced : No<br>
Text #35<br>
ID : 38<br>
Format : UTF-8<br>
Codec ID : S_TEXT/UTF8<br>
Codec ID/Info : UTF-8 Plain Text<br>
Duration : 2 h 5 min<br>
Bit rate : 36 b/s<br>
Frame rate : 0.167 FPS<br>
Count of elements : 1254<br>
Stream size : 33.4 KiB (0%)<br>
Language : Turkish<br>
Default : No<br>
Forced : No<br>
Text #36<br>
ID : 39<br>
Format : UTF-8<br>
Codec ID : S_TEXT/UTF8<br>
Codec ID/Info : UTF-8 Plain Text<br>
Duration : 2 h 5 min<br>
Bit rate : 30 b/s<br>
Frame rate : 0.168 FPS<br>
Count of elements : 1259<br>
Stream size : 27.9 KiB (0%)<br>
Title : Hong Kong<br>
Language : Chinese<br>
Default : No<br>
Forced : No<br>
Text #37<br>
ID : 40<br>
Format : UTF-8<br>
Codec ID : S_TEXT/UTF8<br>
Codec ID/Info : UTF-8 Plain Text<br>
Duration : 2 h 5 min<br>
Bit rate : 34 b/s<br>
Frame rate : 0.168 FPS<br>
Count of elements : 1261<br>
Stream size : 31.3 KiB (0%)<br>
Title : Simplified<br>
Language : Chinese<br>
Default : No<br>
Forced : No<br>
Text #38<br>
ID : 41<br>
Format : UTF-8<br>
Codec ID : S_TEXT/UTF8<br>
Codec ID/Info : UTF-8 Plain Text<br>
Duration : 2 h 5 min<br>
Bit rate : 30 b/s<br>
Frame rate : 0.169 FPS<br>
Count of elements : 1273<br>
Stream size : 27.7 KiB (0%)<br>
Title : Traditional<br>
Language : Chinese<br>
Default : No<br>
Forced : No</div>
</div>
<div class="ToggleTriggerAnchor bbCodeSpoilerContainer">
<button type="button" class="button bbCodeSpoilerButton ToggleTrigger Tooltip JsOnly" data-target="> .SpoilerTarget"><span>Spoiler: <span class="SpoilerTitle">Doctor.Strange.in.the.Multiverse.of.Madness.2022.IMAX.1080p.10bit.WEBRip.DUAL.6CH.x265.HEVC-PSA</span></span></button>
<div class="SpoilerTarget bbCodeSpoilerText">General<br>
Unique ID : 170773406769848641123534884025601273458 (0x8079C30408C2C31EBC39106189AAAE72)<br>
Complete name : C:\Users\rodri\Videos\Filmes\Doctor.Strange.in.the.Multiverse.of.Madness.2022.IMAX.1080p.10bit.WEBRip.DUAL.6CH.x265.HEVC-PSA.mkv<br>
Format : Matroska<br>
Format version : Version 4<br>
File size : 2.71 GiB<br>
Duration : 2 h 6 min<br>
Overall bit rate : 3 064 kb/s<br>
Frame rate : 23.976 FPS<br>
Movie name : Doctor.Strange.in.the.Multiverse.of.Madness.2022.IMAX.1080p.10bit.WEBRip.DUAL.6CH.x265.HEVC-PSA<br>
Encoded date : 2024-03-30 08:57:42 UTC<br>
Writing application : mkvmerge v81.0 ('Milliontown') 64-bit<br>
Writing library : libebml v1.4.4 + libmatroska v1.7.1<br>
Cover : Yes<br>
Attachments : cover.jpg<br>
Video<br>
ID : 1<br>
Format : HEVC<br>
Format/Info : High Efficiency Video Coding<br>
Format profile : Main 10@L4@Main<br>
Codec ID : V_MPEGH/ISO/HEVC<br>
Duration : 2 h 6 min<br>
Bit rate : 2 599 kb/s<br>
Width : 1 920 pixels<br>
Height : 1 016 pixels<br>
Display aspect ratio : 1.890<br>
Frame rate mode : Constant<br>
Frame rate : 23.976 (24000/1001) FPS<br>
Color space : YUV<br>
Chroma subsampling : 4:2:0<br>
Bit depth : 10 bits<br>
Bits/(Pixel*Frame) : 0.056<br>
Stream size : 2.30 GiB (85%)<br>
Default : Yes<br>
Forced : No<br>
Color range : Limited<br>
Color primaries : BT.709<br>
Transfer characteristics : BT.709<br>
Matrix coefficients : BT.709<br>
Audio #1<br>
ID : 2<br>
Format : AAC LC SBR<br>
Format/Info : Advanced Audio Codec Low Complexity with Spectral Band Replication<br>
Commercial name : HE-AAC<br>
Format settings : Explicit<br>
Codec ID : A_AAC-2<br>
Duration : 2 h 6 min<br>
Bit rate : 203 kb/s<br>
Channel(s) : 6 channels<br>
Channel layout : C L R Ls Rs LFE<br>
Sampling rate : 48.0 kHz<br>
Frame rate : 23.438 FPS (2048 SPF)<br>
Compression mode : Lossy<br>
Delay relative to video : 23 ms<br>
Stream size : 184 MiB (7%)<br>
Language : English<br>
Default : Yes<br>
Forced : No<br>
Audio #2<br>
ID : 3<br>
Format : E-AC-3<br>
Format/Info : Enhanced AC-3<br>
Commercial name : Dolby Digital Plus<br>
Codec ID : A_EAC3<br>
Duration : 2 h 6 min<br>
Bit rate mode : Constant<br>
Bit rate : 256 kb/s<br>
Channel(s) : 6 channels<br>
Channel layout : L R C LFE Ls Rs<br>
Sampling rate : 48.0 kHz<br>
Frame rate : 31.250 FPS (1536 SPF)<br>
Compression mode : Lossy<br>
Stream size : 232 MiB (8%)<br>
Title : PT-BR 5.1<br>
Language : Portuguese<br>
Service kind : Complete Main<br>
Default : Yes<br>
Forced : No<br>
Text #1<br>
ID : 4<br>
Format : UTF-8<br>
Codec ID : S_TEXT/UTF8<br>
Codec ID/Info : UTF-8 Plain Text<br>
Duration : 2 h 4 min<br>
Bit rate : 0 b/s<br>
Frame rate : 0.002 FPS<br>
Count of elements : 14<br>
Stream size : 472 Bytes (0%)<br>
Title : PT-BR FORCED<br>
Language : Portuguese<br>
Default : Yes<br>
Forced : No<br>
Text #2<br>
ID : 5<br>
Format : UTF-8<br>
Codec ID : S_TEXT/UTF8<br>
Codec ID/Info : UTF-8 Plain Text<br>
Duration : 2 h 5 min<br>
Bit rate : 36 b/s<br>
Frame rate : 0.167 FPS<br>
Count of elements : 1253<br>
Stream size : 33.8 KiB (0%)<br>
Title : PT-BR FULL<br>
Language : Portuguese<br>
Default : No<br>
Forced : No<br>
Text #3<br>
ID : 6<br>
Format : UTF-8<br>
Codec ID : S_TEXT/UTF8<br>
Codec ID/Info : UTF-8 Plain Text<br>
Duration : 2 h 5 min<br>
Bit rate : 38 b/s<br>
Frame rate : 0.158 FPS<br>
Count of elements : 1187<br>
Stream size : 35.7 KiB (0%)<br>
Title : PT-BR FULL 2<br>
Language : Portuguese<br>
Default : No<br>
Forced : No<br>
Text #4<br>
ID : 7<br>
Format : UTF-8<br>
Codec ID : S_TEXT/UTF8<br>
Codec ID/Info : UTF-8 Plain Text<br>
Duration : 2 h 6 min<br>
Bit rate : 47 b/s<br>
Frame rate : 0.214 FPS<br>
Count of elements : 1621<br>
Stream size : 44.3 KiB (0%)<br>
Title : PT-BR SDH<br>
Language : Portuguese<br>
Default : No<br>
Forced : No<br>
Text #5<br>
ID : 8<br>
Format : UTF-8<br>
Codec ID : S_TEXT/UTF8<br>
Codec ID/Info : UTF-8 Plain Text<br>
Duration : 2 h 5 min<br>
Bit rate : 37 b/s<br>
Frame rate : 0.176 FPS<br>
Count of elements : 1322<br>
Stream size : 34.2 KiB (0%)<br>
Language : English<br>
Default : Yes<br>
Forced : No<br>
Text #6<br>
ID : 9<br>
Format : UTF-8<br>
Codec ID : S_TEXT/UTF8<br>
Codec ID/Info : UTF-8 Plain Text<br>
Duration : 25 min 8 s<br>
Bit rate : 1 b/s<br>
Frame rate : 0.007 FPS<br>
Count of elements : 10<br>
Stream size : 265 Bytes (0%)<br>
Title : Forced<br>
Language : English<br>
Default : No<br>
Forced : No<br>
Text #7<br>
ID : 10<br>
Format : UTF-8<br>
Codec ID : S_TEXT/UTF8<br>
Codec ID/Info : UTF-8 Plain Text<br>
Duration : 2 h 5 min<br>
Bit rate : 50 b/s<br>
Frame rate : 0.253 FPS<br>
Count of elements : 1906<br>
Stream size : 46.1 KiB (0%)<br>
Title : SDH<br>
Language : English<br>
Default : No<br>
Forced : No<br>
Text #8<br>
ID : 11<br>
Format : UTF-8<br>
Codec ID : S_TEXT/UTF8<br>
Codec ID/Info : UTF-8 Plain Text<br>
Duration : 2 h 5 min<br>
Bit rate : 35 b/s<br>
Frame rate : 0.167 FPS<br>
Count of elements : 1256<br>
Stream size : 32.1 KiB (0%)<br>
Language : Czech<br>
Default : No<br>
Forced : No<br>
Text #9<br>
ID : 12<br>
Format : UTF-8<br>
Codec ID : S_TEXT/UTF8<br>
Codec ID/Info : UTF-8 Plain Text<br>
Duration : 2 h 5 min<br>
Bit rate : 32 b/s<br>
Frame rate : 0.109 FPS<br>
Count of elements : 815<br>
Stream size : 29.5 KiB (0%)<br>
Language : Danish<br>
Default : No<br>
Forced : No<br>
Text #10<br>
ID : 13<br>
Format : UTF-8<br>
Codec ID : S_TEXT/UTF8<br>
Codec ID/Info : UTF-8 Plain Text<br>
Duration : 2 h 5 min<br>
Bit rate : 33 b/s<br>
Frame rate : 0.153 FPS<br>
Count of elements : 1150<br>
Stream size : 31.2 KiB (0%)<br>
Language : German<br>
Default : No<br>
Forced : No<br>
Text #11<br>
ID : 14<br>
Format : UTF-8<br>
Codec ID : S_TEXT/UTF8<br>
Codec ID/Info : UTF-8 Plain Text<br>
Duration : 2 h 5 min<br>
Bit rate : 44 b/s<br>
Frame rate : 0.172 FPS<br>
Count of elements : 1297<br>
Stream size : 41.3 KiB (0%)<br>
Title : SDH<br>
Language : German<br>
Default : No<br>
Forced : No<br>
Text #12<br>
ID : 15<br>
Format : UTF-8<br>
Codec ID : S_TEXT/UTF8<br>
Codec ID/Info : UTF-8 Plain Text<br>
Duration : 2 h 5 min<br>
Bit rate : 62 b/s<br>
Frame rate : 0.166 FPS<br>
Count of elements : 1244<br>
Stream size : 57.1 KiB (0%)<br>
Language : Greek<br>
Default : No<br>
Forced : No<br>
Text #13<br>
ID : 16<br>
Format : UTF-8<br>
Codec ID : S_TEXT/UTF8<br>
Codec ID/Info : UTF-8 Plain Text<br>
Duration : 2 h 5 min<br>
Bit rate : 35 b/s<br>
Frame rate : 0.166 FPS<br>
Count of elements : 1248<br>
Stream size : 32.1 KiB (0%)<br>
Language : Spanish<br>
Default : No<br>
Forced : No<br>
Text #14<br>
ID : 17<br>
Format : UTF-8<br>
Codec ID : S_TEXT/UTF8<br>
Codec ID/Info : UTF-8 Plain Text<br>
Duration : 2 h 5 min<br>
Bit rate : 37 b/s<br>
Frame rate : 0.167 FPS<br>
Count of elements : 1252<br>
Stream size : 34.5 KiB (0%)<br>
Title : Latin American<br>
Language : Spanish<br>
Default : No<br>
Forced : No<br>
Text #15<br>
ID : 18<br>
Format : UTF-8<br>
Codec ID : S_TEXT/UTF8<br>
Codec ID/Info : UTF-8 Plain Text<br>
Duration : 2 h 6 min<br>
Bit rate : 38 b/s<br>
Frame rate : 0.158 FPS<br>
Count of elements : 1195<br>
Stream size : 35.2 KiB (0%)<br>
Title : Latin American SDH<br>
Language : Spanish<br>
Default : No<br>
Forced : No<br>
Text #16<br>
ID : 19<br>
Format : UTF-8<br>
Codec ID : S_TEXT/UTF8<br>
Codec ID/Info : UTF-8 Plain Text<br>
Duration : 2 h 5 min<br>
Bit rate : 37 b/s<br>
Frame rate : 0.166 FPS<br>
Count of elements : 1246<br>
Stream size : 34.1 KiB (0%)<br>
Language : Finnish<br>
Default : No<br>
Forced : No<br>
Text #17<br>
ID : 20<br>
Format : UTF-8<br>
Codec ID : S_TEXT/UTF8<br>
Codec ID/Info : UTF-8 Plain Text<br>
Duration : 2 h 5 min<br>
Bit rate : 33 b/s<br>
Frame rate : 0.155 FPS<br>
Count of elements : 1165<br>
Stream size : 30.7 KiB (0%)<br>
Language : French<br>
Default : No<br>
Forced : No<br>
Text #18<br>
ID : 21<br>
Format : UTF-8<br>
Codec ID : S_TEXT/UTF8<br>
Codec ID/Info : UTF-8 Plain Text<br>
Duration : 2 h 6 min<br>
Bit rate : 42 b/s<br>
Frame rate : 0.193 FPS<br>
Count of elements : 1460<br>
Stream size : 39.6 KiB (0%)<br>
Title : SDH<br>
Language : French<br>
Default : No<br>
Forced : No<br>
Text #19<br>
ID : 22<br>
Format : UTF-8<br>
Codec ID : S_TEXT/UTF8<br>
Codec ID/Info : UTF-8 Plain Text<br>
Duration : 2 h 5 min<br>
Bit rate : 40 b/s<br>
Frame rate : 0.171 FPS<br>
Count of elements : 1282<br>
Stream size : 37.0 KiB (0%)<br>
Title : Canadian<br>
Language : French<br>
Default : No<br>
Forced : No<br>
Text #20<br>
ID : 23<br>
Format : UTF-8<br>
Codec ID : S_TEXT/UTF8<br>
Codec ID/Info : UTF-8 Plain Text<br>
Duration : 2 h 5 min<br>
Bit rate : 57 b/s<br>
Frame rate : 0.260 FPS<br>
Count of elements : 1957<br>
Stream size : 53.0 KiB (0%)<br>
Title : Canadian SDH<br>
Language : French<br>
Default : No<br>
Forced : No<br>
Text #21<br>
ID : 24<br>
Format : UTF-8<br>
Codec ID : S_TEXT/UTF8<br>
Codec ID/Info : UTF-8 Plain Text<br>
Duration : 2 h 5 min<br>
Bit rate : 33 b/s<br>
Frame rate : 0.167 FPS<br>
Count of elements : 1256<br>
Stream size : 30.6 KiB (0%)<br>
Language : Hungarian<br>
Default : No<br>
Forced : No<br>
Text #22<br>
ID : 25<br>
Format : UTF-8<br>
Codec ID : S_TEXT/UTF8<br>
Codec ID/Info : UTF-8 Plain Text<br>
Duration : 2 h 5 min<br>
Bit rate : 36 b/s<br>
Frame rate : 0.167 FPS<br>
Count of elements : 1258<br>
Stream size : 33.9 KiB (0%)<br>
Language : Icelandic<br>
Default : No<br>
Forced : No<br>
Text #23<br>
ID : 26<br>
Format : UTF-8<br>
Codec ID : S_TEXT/UTF8<br>
Codec ID/Info : UTF-8 Plain Text<br>
Duration : 2 h 5 min<br>
Bit rate : 38 b/s<br>
Frame rate : 0.168 FPS<br>
Count of elements : 1260<br>
Stream size : 35.3 KiB (0%)<br>
Language : Italian<br>
Default : No<br>
Forced : No<br>
Text #24<br>
ID : 27<br>
Format : UTF-8<br>
Codec ID : S_TEXT/UTF8<br>
Codec ID/Info : UTF-8 Plain Text<br>
Duration : 2 h 5 min<br>
Bit rate : 31 b/s<br>
Frame rate : 0.157 FPS<br>
Count of elements : 1177<br>
Stream size : 29.1 KiB (0%)<br>
Language : Japanese<br>
Default : No<br>
Forced : No<br>
Text #25<br>
ID : 28<br>
Format : UTF-8<br>
Codec ID : S_TEXT/UTF8<br>
Codec ID/Info : UTF-8 Plain Text<br>
Duration : 2 h 5 min<br>
Bit rate : 38 b/s<br>
Frame rate : 0.167 FPS<br>
Count of elements : 1255<br>
Stream size : 35.0 KiB (0%)<br>
Language : Korean<br>
Default : No<br>
Forced : No<br>
Text #26<br>
ID : 29<br>
Format : UTF-8<br>
Codec ID : S_TEXT/UTF8<br>
Codec ID/Info : UTF-8 Plain Text<br>
Duration : 2 h 5 min<br>
Bit rate : 35 b/s<br>
Frame rate : 0.135 FPS<br>
Count of elements : 1011<br>
Stream size : 32.8 KiB (0%)<br>
Language : Dutch<br>
Default : No<br>
Forced : No<br>
Text #27<br>
ID : 30<br>
Format : UTF-8<br>
Codec ID : S_TEXT/UTF8<br>
Codec ID/Info : UTF-8 Plain Text<br>
Duration : 2 h 5 min<br>
Bit rate : 33 b/s<br>
Frame rate : 0.168 FPS<br>
Count of elements : 1261<br>
Stream size : 31.1 KiB (0%)<br>
Language : Norwegian<br>
Default : No<br>
Forced : No<br>
Text #28<br>
ID : 31<br>
Format : UTF-8<br>
Codec ID : S_TEXT/UTF8<br>
Codec ID/Info : UTF-8 Plain Text<br>
Duration : 2 h 5 min<br>
Bit rate : 30 b/s<br>
Frame rate : 0.166 FPS<br>
Count of elements : 1249<br>
Stream size : 27.8 KiB (0%)<br>
Language : Polish<br>
Default : No<br>
Forced : No<br>
Text #29<br>
ID : 32<br>
Format : UTF-8<br>
Codec ID : S_TEXT/UTF8<br>
Codec ID/Info : UTF-8 Plain Text<br>
Duration : 2 h 6 min<br>
Bit rate : 36 b/s<br>
Frame rate : 0.165 FPS<br>
Count of elements : 1246<br>
Stream size : 33.8 KiB (0%)<br>
Language : Portuguese<br>
Default : No<br>
Forced : No<br>
Text #30<br>
ID : 33<br>
Format : UTF-8<br>
Codec ID : S_TEXT/UTF8<br>
Codec ID/Info : UTF-8 Plain Text<br>
Duration : 2 h 5 min<br>
Bit rate : 36 b/s<br>
Frame rate : 0.167 FPS<br>
Count of elements : 1253<br>
Stream size : 33.5 KiB (0%)<br>
Title : Brazilian<br>
Language : Portuguese<br>
Default : No<br>
Forced : No<br>
Text #31<br>
ID : 34<br>
Format : UTF-8<br>
Codec ID : S_TEXT/UTF8<br>
Codec ID/Info : UTF-8 Plain Text<br>
Duration : 2 h 6 min<br>
Bit rate : 47 b/s<br>
Frame rate : 0.214 FPS<br>
Count of elements : 1621<br>
Stream size : 43.8 KiB (0%)<br>
Title : Brazilian SDH<br>
Language : Portuguese<br>
Default : No<br>
Forced : No<br>
Text #32<br>
ID : 35<br>
Format : UTF-8<br>
Codec ID : S_TEXT/UTF8<br>
Codec ID/Info : UTF-8 Plain Text<br>
Duration : 2 h 5 min<br>
Bit rate : 38 b/s<br>
Frame rate : 0.159 FPS<br>
Count of elements : 1197<br>
Stream size : 35.0 KiB (0%)<br>
Language : Romanian<br>
Default : No<br>
Forced : No<br>
Text #33<br>
ID : 36<br>
Format : UTF-8<br>
Codec ID : S_TEXT/UTF8<br>
Codec ID/Info : UTF-8 Plain Text<br>
Duration : 2 h 5 min<br>
Bit rate : 32 b/s<br>
Frame rate : 0.167 FPS<br>
Count of elements : 1257<br>
Stream size : 29.4 KiB (0%)<br>
Language : Slovak<br>
Default : No<br>
Forced : No<br>
Text #34<br>
ID : 37<br>
Format : UTF-8<br>
Codec ID : S_TEXT/UTF8<br>
Codec ID/Info : UTF-8 Plain Text<br>
Duration : 2 h 5 min<br>
Bit rate : 35 b/s<br>
Frame rate : 0.126 FPS<br>
Count of elements : 949<br>
Stream size : 32.3 KiB (0%)<br>
Language : Swedish<br>
Default : No<br>
Forced : No<br>
Text #35<br>
ID : 38<br>
Format : UTF-8<br>
Codec ID : S_TEXT/UTF8<br>
Codec ID/Info : UTF-8 Plain Text<br>
Duration : 2 h 5 min<br>
Bit rate : 36 b/s<br>
Frame rate : 0.167 FPS<br>
Count of elements : 1254<br>
Stream size : 33.4 KiB (0%)<br>
Language : Turkish<br>
Default : No<br>
Forced : No<br>
Text #36<br>
ID : 39<br>
Format : UTF-8<br>
Codec ID : S_TEXT/UTF8<br>
Codec ID/Info : UTF-8 Plain Text<br>
Duration : 2 h 5 min<br>
Bit rate : 30 b/s<br>
Frame rate : 0.168 FPS<br>
Count of elements : 1259<br>
Stream size : 27.9 KiB (0%)<br>
Title : Hong Kong<br>
Language : Chinese<br>
Default : No<br>
Forced : No<br>
Text #37<br>
ID : 40<br>
Format : UTF-8<br>
Codec ID : S_TEXT/UTF8<br>
Codec ID/Info : UTF-8 Plain Text<br>
Duration : 2 h 5 min<br>
Bit rate : 34 b/s<br>
Frame rate : 0.168 FPS<br>
Count of elements : 1261<br>
Stream size : 31.3 KiB (0%)<br>
Title : Simplified<br>
Language : Chinese<br>
Default : No<br>
Forced : No<br>
Text #38<br>
ID : 41<br>
Format : UTF-8<br>
Codec ID : S_TEXT/UTF8<br>
Codec ID/Info : UTF-8 Plain Text<br>
Duration : 2 h 5 min<br>
Bit rate : 30 b/s<br>
Frame rate : 0.169 FPS<br>
Count of elements : 1273<br>
Stream size : 27.7 KiB (0%)<br>
Title : Traditional<br>
Language : Chinese<br>
Default : No<br>
Forced : No<br>
Menu<br>
01:59:27.417 : en:Credits</div>
</div><br>
<span style="font-size: 18px">Download:</span><br>
<span style="font-size: 18px">
<div class="bbCodeBlock bbCodeVfcHH HiddenContent">
<div class="attribution type">Hidden Content:</div>
<blockquote>You must either reply or click 'Like' to see the hidden information contained here.</blockquote>
</div></span>
<div class="messageTextEndMarker">&nbsp;</div>
</blockquote>
</article>]]></description>
                <author><![CDATA[rodriggam]]></author>
                </item>

                
                <item>
                <title><![CDATA[【Cinema Center】MOVIE - Lisa.Frankenstein.2024.1080p.PCOK.WEB-DL.DDP5.1.x264-Samuel]]></title>
                <link><![CDATA[https://sharemania.us/threads/lisa-frankenstein-2024-1080p-pcok-web-dl-ddp5-1-x264-samuel.241618/]]></link>
                <description><![CDATA[<article>
<blockquote class="messageText SelectQuoteContainer ugc baseHtml">
Bless you - I hope it’s not too big.
<div class="messageTextEndMarker">&nbsp;</div>
</blockquote>
</article>]]></description>
                <author><![CDATA[Samuel]]></author>
                </item>

                
                <item>
                <title><![CDATA[【Cinema Center】MOVIE - Barbie as Rapunzel (2002) 1080p Remastered / Multi-languages]]></title>
                <link><![CDATA[https://sharemania.us/threads/barbie-as-rapunzel-2002-1080p-remastered-multi-languages.241617/]]></link>
                <description><![CDATA[<article>
<blockquote class="messageText SelectQuoteContainer ugc baseHtml">
Respectfully, can we move this elsewhere? I can only download one part a day.
<div class="messageTextEndMarker">&nbsp;</div>
</blockquote>
</article>]]></description>
                <author><![CDATA[zac26]]></author>
                </item>

                </channel></rss>